HIERARCHY
ROOT hip
{
	OFFSET 0.000000 0.000000 0.000000 
	CHANNELS 6 Xposition Yposition Zposition Xrotation Zrotation Yrotation
	JOINT abdomen
	{
		OFFSET 0.000000 3.402643 0.000000 
		CHANNELS 3 Xrotation Zrotation Yrotation
		JOINT chest
		{
			OFFSET 0.000000 8.438565 -0.680529 
			CHANNELS 3 Xrotation Zrotation Yrotation
			JOINT neck
			{
				OFFSET 0.000000 10.207942 -0.272212 
				CHANNELS 3 Xrotation Zrotation Yrotation
				JOINT head
				{
					OFFSET 0.000000 3.130431 0.000000 
					CHANNELS 3 Xrotation Zrotation Yrotation
					End Site
					{
						OFFSET 0.000000 3.130435 0.000000 
					}
				}
			}
			JOINT lCollar
			{
				OFFSET 3.470700 6.669187 -0.816635 
				CHANNELS 3 Yrotation Zrotation Xrotation
				JOINT lShldr
				{
					OFFSET 3.198488 0.000000 0.000000 
					CHANNELS 3 Zrotation Yrotation Xrotation
					JOINT lForeArm
					{
						OFFSET 10.139888 0.000000 0.000000 
						CHANNELS 3 Yrotation Zrotation Xrotation
						JOINT lHand
						{
							OFFSET 8.370511 0.000000 0.000000 
							CHANNELS 3 Zrotation Yrotation Xrotation
							End Site
							{
								OFFSET 4.083176 0.000000 0.000000 
							}
						}
					}
				}
			}
			JOINT rCollar
			{
				OFFSET -3.470700 6.669187 -0.816635 
				CHANNELS 3 Yrotation Zrotation Xrotation
				JOINT rShldr
				{
					OFFSET -3.198488 0.000000 0.000000 
					CHANNELS 3 Zrotation Yrotation Xrotation
					JOINT rForeArm
					{
						OFFSET -10.139888 0.000000 0.000000 
						CHANNELS 3 Yrotation Zrotation Xrotation
						JOINT rHand
						{
							OFFSET -8.370511 0.000000 0.000000 
							CHANNELS 3 Zrotation Yrotation Xrotation
							End Site
							{
								OFFSET -4.083176 0.000000 0.000000 
							}
						}
					}
				}
			}
		}
	}
	JOINT lThigh
	{
		OFFSET 5.308129 -1.633274 1.361059 
		CHANNELS 3 Xrotation Zrotation Yrotation
		JOINT lShin
		{
			OFFSET -2.041588 -20.007561 0.000000 
			CHANNELS 3 Xrotation Zrotation Yrotation
			JOINT lFoot
			{
				OFFSET 0.000000 -19.190928 -1.224953 
				CHANNELS 3 Xrotation Yrotation Zrotation
				End Site
				{
					OFFSET 0.000000 -2.449906 4.627600 
				}
			}
		}
	}
	JOINT rThigh
	{
		OFFSET -5.308129 -1.633274 1.361059 
		CHANNELS 3 Xrotation Zrotation Yrotation
		JOINT rShin
		{
			OFFSET 2.041588 -20.007561 0.000000 
			CHANNELS 3 Xrotation Zrotation Yrotation
			JOINT rFoot
			{
				OFFSET 0.000000 -19.190928 -1.224953 
				CHANNELS 3 Xrotation Yrotation Zrotation
				End Site
				{
					OFFSET 0.000000 -2.449906 4.627600 
				}
			}
		}
	}
}
MOTION
Frames: 10
Frame Time: 0.016667
13.209538 46.419228 64.687149 2.153151 -1.885519 -31.327639 10.370935 -8.716507 -6.352993 16.766178 1.333635 8.273773 -8.621400 0.614870 1.972857 30.412992 -7.045980 2.124583 1.992188 -2.001953 0.000341 -55.700653 -32.379616 -9.654057 -102.638588 0.145969 5.468015 5.493610 -19.761202 11.649093 -2.001953 1.992188 0.000000 66.606125 69.415100 24.064865 76.218605 -0.730566 4.749775 5.369613 13.612037 1.724861 -25.221500 17.350952 5.648027 28.480625 -3.575510 -9.717718 0.377918 0.061791 -8.268143 16.652729 -18.248684 -24.436937 22.113506 3.538352 -13.569279 -12.519570 -2.650302 17.309181 
13.274710 46.739948 65.119240 1.484128 -2.685802 -36.041885 10.370935 -8.716507 -6.352993 17.796951 1.159481 8.341681 -8.571565 0.780596 2.344064 30.993980 -8.078251 2.514912 1.992188 -2.001953 0.000341 -56.220089 -24.603853 -12.566895 -105.767136 0.030251 5.490002 5.738235 -19.896704 11.042533 -2.001953 1.992188 0.000000 71.505379 62.802311 30.002630 81.322693 -0.729406 4.977360 4.610086 14.329563 0.661543 -22.332590 18.543518 6.806657 28.502863 -3.555895 -6.996710 0.398242 0.375141 -8.911671 15.463881 -19.421225 -24.166132 22.396641 3.548251 -10.984106 -12.017718 -2.181542 15.657617 
13.471028 46.814877 65.424927 0.669532 -3.278966 -38.375263 10.370935 -8.716507 -6.352993 19.845049 1.892808 8.549901 -8.462296 1.170175 3.086689 31.969784 -6.912692 3.265608 1.992188 -2.001953 0.000341 -57.003391 -18.835066 -15.373345 -107.010788 -0.011439 5.492369 6.198943 -20.489542 9.864642 -2.001953 1.992188 0.000000 68.792488 56.543232 28.304819 84.370850 -0.679978 5.087942 2.605845 14.788672 -2.871384 -22.561092 18.820889 6.108742 31.444862 -3.419308 -6.601059 2.939467 0.292389 -9.515734 15.002526 -20.230030 -24.547094 21.771254 3.567822 -8.785566 -10.831241 -2.086236 19.186085 
13.668112 46.887779 65.730553 -0.119076 -3.898197 -40.709789 10.370935 -8.716507 -6.352993 21.897905 2.615525 8.779040 -8.352035 1.568757 3.829628 32.943977 -5.747470 4.043274 1.992188 -2.001953 0.000341 -58.059975 -13.094213 -18.184015 -108.255684 -0.062926 5.492992 6.679749 -21.069134 8.664562 -2.001953 1.992188 0.000000 66.753517 50.256462 27.318054 87.416710 -0.624889 5.189324 0.570745 15.124348 -6.405981 -22.807711 19.096910 5.381401 34.428089 -3.312254 -6.194118 5.445576 0.185199 -10.104770 14.569575 -21.045233 -24.924520 21.172676 3.616180 -6.600074 -9.695139 -1.930242 22.678852 
14.029860 46.529987 66.026978 -0.501220 -3.553519 -43.248260 10.370935 -8.716507 -6.352993 23.049467 3.424580 8.961875 -8.274565 2.179041 5.042835 33.841599 -2.673875 5.347353 1.992188 -2.001953 0.000341 -58.926418 -5.086048 -21.752253 -109.598137 -0.098948 5.487967 7.847448 -21.110041 6.984679 -2.001953 1.992188 0.000000 64.749077 45.341507 25.573826 88.893562 -0.587786 5.244912 -0.808483 15.571769 -6.263636 -24.612947 19.252453 3.938329 37.916206 -3.214912 -8.101566 6.680263 -0.773996 -10.762732 13.225975 -23.217283 -25.294573 22.612822 3.574421 -5.889704 -10.956714 -2.228633 23.030994 
14.391126 46.171825 66.324562 -0.889662 -3.224106 -45.796349 10.370935 -8.716507 -6.352993 24.205395 4.223044 9.156196 -8.181437 2.786115 6.248018 34.800228 0.378267 6.689628 1.992188 -2.001953 0.000341 -60.282860 2.868040 -25.434511 -110.953514 -0.145102 5.480648 9.011280 -21.127665 5.320778 -2.001953 1.992188 0.000000 63.087830 40.404808 24.189634 90.378059 -0.558730 5.283204 -2.175180 16.016623 -6.116928 -26.414501 19.364092 2.471745 41.366371 -3.010247 -10.002384 7.891464 -1.706295 -11.397943 11.868281 -25.394835 -25.591076 24.071892 3.508272 -5.163989 -12.221248 -2.561558 23.384199 
14.653263 45.733795 66.873108 -0.927654 -3.177118 -51.076252 10.370935 -8.716507 -6.352993 25.053389 4.347180 9.255772 -8.065849 3.464490 7.719827 35.032318 2.966684 8.302569 1.992188 -2.001953 0.000341 -61.458282 14.799654 -30.206968 -112.546188 -0.228132 5.451685 8.951434 -21.074970 6.835765 -2.001953 1.992188 0.000000 61.019135 38.395176 24.798716 92.736855 -0.487622 5.338538 -2.767869 15.997784 -5.615781 -24.890354 20.476543 3.352623 41.232204 -3.010714 -8.744360 3.333341 -1.376335 -12.284533 10.047101 -28.065744 -25.391470 23.917536 3.548568 0.233041 -13.515201 -2.516617 22.914051 
14.914554 45.296490 67.420471 -0.959598 -3.143238 -56.379559 10.370935 -8.716507 -6.352993 25.900227 4.461596 9.355392 -7.933146 4.145459 9.194434 35.335384 5.550886 9.930466 1.992188 -2.001953 0.000341 -63.825562 26.580858 -35.636551 -114.122253 -0.300548 5.424447 8.906714 -21.020102 8.369357 -2.001953 1.992188 0.000000 58.986641 36.432224 25.491829 95.088036 -0.424218 5.394586 -3.352042 15.973630 -5.121193 -23.325939 21.587566 4.251500 41.089428 -3.000565 -7.481454 -1.204525 -0.979757 -13.143980 8.131020 -30.709087 -25.062349 23.773806 3.607614 5.591141 -14.791862 -2.424426 22.420996 
14.998112 45.010807 67.721367 0.537495 -4.465302 -64.156311 10.370935 -8.716507 -6.352993 27.602386 3.901508 9.456050 -7.643864 5.288252 11.730980 34.855495 7.996943 12.655447 1.992188 -2.001953 0.000341 -66.030182 36.665787 -40.937286 -110.396843 -0.080119 5.543767 9.650035 -21.314766 16.353304 -2.001953 1.992188 0.000000 59.218056 39.590145 27.880360 94.984520 -0.419827 5.383298 -2.170684 15.939682 -4.502043 -19.224966 25.677519 7.842272 39.738380 -3.078547 -5.590561 -4.802591 -0.186596 -15.644287 3.241314 -30.585663 -19.425518 24.677721 3.637702 8.673067 -14.409412 -1.612827 21.935667 
15.084088 44.724072 68.022812 2.192163 -5.562394 -71.953537 10.370935 -8.716507 -6.352993 29.293840 3.351470 9.547910 -7.300553 6.409316 14.261553 34.486065 10.461395 15.360208 1.992188 -2.001953 0.000341 -69.858467 46.446808 -47.617107 -106.626198 0.141319 5.645031 10.331222 -21.700771 24.282276 -2.001953 1.992188 0.000000 59.627960 42.722046 30.385872 94.891846 -0.414800 5.374506 -0.994498 15.907431 -3.895308 -14.726010 29.499853 11.897565 38.418472 -3.107456 -3.731394 -8.351265 0.768273 -18.077312 -1.603540 -30.051462 -13.857228 25.579855 3.623407 11.764524 -14.023810 -0.781871 21.433985 
